<svg class="svg-icon" style="width: 1em;height: 1em;vertical-align: middle;fill: currentColor;overflow: hidden;" viewBox="0 0 1024 1024" version="1.1" xmlns="http://www.w3.org/2000/svg"><path d="M744.106667 402.773333h-34.133334v-204.8c0-47.786667-37.546667-85.333333-85.333333-85.333333h-204.8c-47.786667 0-85.333333 37.546667-85.333333 85.333333v204.8h-34.133334v-204.8c0-64.853333 54.613333-119.466667 119.466667-119.466666h204.8c64.853333 0 119.466667 54.613333 119.466667 119.466666v204.8z" fill="#2D3545" /><path d="M385.706667 283.306667h273.066666v34.133333h-273.066666z" fill="#2D3545" /><path d="M914.773333 897.706667h-785.066666v-614.4h119.466666v34.133333H163.84v546.133333h716.8v-546.133333h-85.333333v-34.133333h119.466666z" fill="#2D3545" /><path d="M522.24 733.866667l-129.706667-129.706667c-17.066667-17.066667-23.893333-37.546667-23.893333-61.44 0-44.373333 30.72-81.92 71.68-88.746667 23.893333-3.413333 51.2 3.413333 68.266667 20.48l13.653333 13.653334c3.413333-3.413333 6.826667-10.24 13.653333-13.653334 20.48-17.066667 44.373333-23.893333 68.266667-20.48 40.96 6.826667 71.68 44.373333 71.68 88.746667 0 23.893333-10.24 47.786667-23.893333 61.44l-129.706667 129.706667z m-68.266667-245.76H443.733333c-23.893333 3.413333-40.96 27.306667-40.96 54.613333 0 17.066667 6.826667 27.306667 13.653334 37.546667l105.813333 105.813333 105.813333-105.813333c10.24-10.24 13.653333-23.893333 13.653334-37.546667 0-30.72-17.066667-51.2-40.96-58.026667-13.653333-3.413333-30.72 0-40.96 10.24-10.24 10.24-17.066667 23.893333-17.066667 37.546667h-34.133333c0-13.653333-6.826667-30.72-17.066667-37.546667-13.653333-3.413333-23.893333-6.826667-37.546667-6.826666z" fill="#FF9A22" /></svg>