<svg class="svg-icon" style="width: 1em; height: 1em;vertical-align: middle;fill: currentColor;overflow: hidden;" viewBox="0 0 1024 1024" version="1.1" xmlns="http://www.w3.org/2000/svg"><path d="M507.733333 960H221.866667c-49.066667 0-89.6-40.533333-89.6-89.6V480c0-12.8 8.533333-21.333333 21.333333-21.333333s21.333333 8.533333 21.333333 21.333333v390.4c0 25.6 21.333333 46.933333 46.933334 46.933333h285.866666c12.8 0 21.333333 8.533333 21.333334 21.333334s-8.533333 21.333333-21.333334 21.333333z" fill="#666666" /><path d="M802.133333 960H512c-12.8 0-21.333333-8.533333-21.333333-21.333333s8.533333-21.333333 21.333333-21.333334h290.133333c25.6 0 46.933333-19.2 46.933334-44.8v-66.133333c0-12.8 8.533333-21.333333 21.333333-21.333333s21.333333 8.533333 21.333333 21.333333v66.133333c0 46.933333-40.533333 87.466667-89.6 87.466667zM870.4 586.666667c-12.8 0-21.333333-8.533333-21.333333-21.333334v-87.466666c0-12.8 8.533333-21.333333 21.333333-21.333334s21.333333 8.533333 21.333333 21.333334v87.466666c0 10.666667-10.666667 21.333333-21.333333 21.333334z" fill="#666666" /><path d="M868.266667 488.533333H155.733333c-46.933333 0-85.333333-38.4-85.333333-85.333333v-96c0-46.933333 38.4-85.333333 85.333333-85.333333h712.533334c46.933333 0 85.333333 38.4 85.333333 85.333333v96c0 46.933333-38.4 85.333333-85.333333 85.333333zM155.733333 264.533333c-23.466667 0-42.666667 19.2-42.666666 42.666667v96c0 23.466667 19.2 42.666667 42.666666 42.666667h712.533334c23.466667 0 42.666667-19.2 42.666666-42.666667v-96c0-23.466667-19.2-42.666667-42.666666-42.666667H155.733333z" fill="#666666" /><path d="M430.933333 249.6c-51.2 0-93.866667-42.666667-93.866666-93.866667s42.666667-93.866667 93.866666-93.866666 93.866667 42.666667 93.866667 93.866666-42.666667 93.866667-93.866667 93.866667z m0-142.933333c-27.733333 0-51.2 23.466667-51.2 51.2 0 27.733333 23.466667 51.2 51.2 51.2s51.2-23.466667 51.2-51.2C482.133333 128 458.666667 106.666667 430.933333 106.666667z" fill="#666666" /><path d="M593.066667 249.6c-23.466667 0-44.8-8.533333-61.866667-23.466667-19.2-17.066667-29.866667-40.533333-29.866667-64-2.133333-51.2 38.4-96 89.6-98.133333 51.2-2.133333 96 38.4 98.133334 89.6 2.133333 51.2-38.4 96-89.6 98.133333-4.266667-2.133333-4.266667-2.133333-6.4-2.133333z m0-142.933333h-2.133334c-27.733333 2.133333-49.066667 25.6-49.066666 53.333333 0 12.8 6.4 25.6 17.066666 34.133333 10.666667 8.533333 23.466667 14.933333 36.266667 12.8 27.733333-2.133333 49.066667-25.6 49.066667-53.333333C642.133333 128 620.8 106.666667 593.066667 106.666667z" fill="#666666" /><path d="M870.4 684.8m-36.266667 0a36.266667 36.266667 0 1 0 72.533334 0 36.266667 36.266667 0 1 0-72.533334 0Z" fill="#666666" /><path d="M514.133333 467.2h-6.4c-10.666667 0-21.333333 8.533333-21.333333 21.333333V917.333333c0 12.8 10.666667 21.333333 21.333333 21.333334h6.4c10.666667 0 21.333333-8.533333 21.333334-21.333334V488.533333c0-10.666667-8.533333-21.333333-21.333334-21.333333z" fill="#666666" /></svg>