<svg class="svg-icon" style="width: 1.0283203125em; height: 1em;vertical-align: middle;fill: currentColor;overflow: hidden;" viewBox="0 0 1053 1024" version="1.1" xmlns="http://www.w3.org/2000/svg"><path d="M519.138743 994.157714A58.514286 58.514286 0 0 1 468.114286 1024h-117.028572a58.514286 58.514286 0 0 1 0-117.028571h117.028572a58.514286 58.514286 0 0 1 51.024457 29.842285c1.872457-0.380343 3.803429-0.585143 5.792914-0.585143C719.784229 936.228571 877.714286 778.298514 877.714286 583.445943V409.6c0-193.887086-157.198629-351.085714-351.085715-351.085714S175.542857 215.712914 175.542857 409.6v57.9584a29.257143 29.257143 0 0 1-58.514286 0V409.6C117.028571 183.383771 300.412343 0 526.628571 0s409.6 183.383771 409.6 409.6v173.845943C936.228571 810.5984 752.084114 994.742857 524.931657 994.742857c-1.989486 0-3.920457-0.2048-5.792914-0.585143zM965.485714 438.857143a29.257143 29.257143 0 0 0-29.257143 29.257143v117.028571a29.257143 29.257143 0 1 0 58.514286 0v-117.028571a29.257143 29.257143 0 0 0-29.257143-29.257143z m0-58.514286a87.771429 87.771429 0 0 1 87.771429 87.771429v117.028571a87.771429 87.771429 0 0 1-175.542857 0v-117.028571a87.771429 87.771429 0 0 1 87.771428-87.771429zM87.771429 438.857143a29.257143 29.257143 0 0 0-29.257143 29.257143v117.028571a29.257143 29.257143 0 1 0 58.514285 0v-117.028571a29.257143 29.257143 0 0 0-29.257142-29.257143z m0-58.514286a87.771429 87.771429 0 0 1 87.771428 87.771429v117.028571a87.771429 87.771429 0 0 1-175.542857 0v-117.028571a87.771429 87.771429 0 0 1 87.771429-87.771429z" fill="#7F7F7F" /></svg>