<svg class="svg-icon" style="width: 1em; height: 1em;vertical-align: middle;fill: currentColor;overflow: hidden;" viewBox="0 0 1024 1024" version="1.1" xmlns="http://www.w3.org/2000/svg"><path d="M748.8 603.733333m-32 0a32 32 0 1 0 64 0 32 32 0 1 0-64 0Z" fill="#666666" /><path d="M949.333333 405.333333c0-34.133333-17.066667-64-44.8-81.066666v-78.933334c0-49.066667-40.533333-89.6-89.6-89.6H576V149.333333c-6.4-12.8-19.2-21.333333-32-25.6-12.8-4.266667-27.733333-2.133333-40.533333 6.4l-32 19.2-305.066667-2.133333c-49.066667 0-89.6 40.533333-91.733333 89.6v23.466667c0 6.4 0 10.666667 2.133333 14.933333v516.266667c0 53.333333 44.8 98.133333 98.133333 98.133333h268.8c12.8 0 21.333333-8.533333 21.333334-21.333333s-8.533333-21.333333-21.333334-21.333334H172.8c-29.866667 0-55.466667-25.6-55.466667-55.466666V337.066667c12.8 8.533333 27.733333 12.8 44.8 12.8H853.333333c29.866667 0 55.466667 25.6 55.466667 55.466666v85.333334H686.933333c-49.066667 0-87.466667 38.4-87.466666 87.466666V618.666667c0 49.066667 38.4 87.466667 87.466666 87.466666h219.733334v87.466667c0 14.933333-6.4 27.733333-17.066667 38.4s-23.466667 17.066667-38.4 17.066667h-198.4c-12.8 0-21.333333 8.533333-21.333333 21.333333s8.533333 21.333333 21.333333 21.333333H853.333333c25.6 0 51.2-10.666667 70.4-29.866666 19.2-19.2 29.866667-42.666667 29.866667-70.4L949.333333 405.333333zM209.066667 307.2H162.133333c-12.8 0-23.466667-4.266667-32-12.8-6.4-6.4-10.666667-14.933333-12.8-21.333333V256 236.8c0-25.6 21.333333-46.933333 49.066667-46.933333l234.666667 2.133333-192 115.2z m83.2 0l234.666666-140.8c2.133333-2.133333 6.4-2.133333 6.4 0 2.133333 0 4.266667 2.133333 6.4 4.266667l76.8 136.533333H292.266667z m552.533333 0h-179.2l-64-113.066667h213.333333c25.6 0 46.933333 21.333333 46.933334 46.933334v64c-4.266667 0-8.533333-2.133333-12.8-2.133334h-4.266667z m-157.866667 356.266667c-25.6 0-44.8-19.2-44.8-44.8v-40.533334c0-25.6 19.2-44.8 44.8-44.8h219.733334v130.133334H686.933333z" fill="#666666" /><path d="M548.266667 868.266667m-32 0a32 32 0 1 0 64 0 32 32 0 1 0-64 0Z" fill="#666666" /></svg>